<svg width="324" height="83" viewBox="0 0 324 83" fill="none" xmlns="http://www.w3.org/2000/svg">
<path d="M39.42 27.42V41.97C45.66 40.08 51.93 38.29 58.12 36.28C61.15 35.3 63.52 33.41 64.56 30.17C65.11 28.46 65.03 27.37 63.21 26.33C59.55 24.24 58.14 20.16 59.29 16.21C60.42 12.35 63.82 9.74003 67.78 9.69003C71.87 9.64003 75.36 12.2 76.58 16.14C77.84 20.22 76.12 24.3 72.36 26.66C71.51 27.19 70.64 28.25 70.47 29.19C69.42 35.02 66.19 39.12 60.75 41.23C57.2 42.61 53.43 43.41 49.78 44.53C47.8 45.14 45.65 45.55 43.95 46.64C42.3 47.69 40.82 49.31 39.84 51.01C38.81 52.81 38.94 54.56 41.37 55.87C44.94 57.79 46.35 62.26 45.14 66.07C43.94 69.86 40.47 72.37 36.46 72.34C32.38 72.32 29.04 69.85 27.85 65.99C26.66 62.12 28.08 57.83 31.66 55.81C33.41 54.82 33.8 53.7 33.78 51.88C33.69 44.38 33.73 36.89 33.76 29.39C33.76 28.15 33.57 27.34 32.28 26.63C28.23 24.4 26.63 20.47 27.8 16.31C28.93 12.29 32.57 9.58002 36.72 9.67002C40.7 9.76002 44.34 12.66 45.28 16.49C46.31 20.68 44.55 24.48 40.54 26.76C40.18 26.96 39.82 27.17 39.41 27.41L39.42 27.42ZM36.38 22.19C38.3 22.24 39.87 20.75 39.92 18.83C39.97 16.87 38.53 15.31 36.61 15.24C34.75 15.18 33.08 16.73 33 18.6C32.92 20.44 34.52 22.13 36.38 22.19ZM67.86 22.19C69.77 22.24 71.38 20.71 71.41 18.82C71.44 16.91 69.91 15.29 68.04 15.24C66.18 15.19 64.52 16.76 64.46 18.63C64.39 20.48 65.98 22.14 67.86 22.19ZM36.51 66.79C38.49 66.79 39.92 65.36 39.92 63.36C39.92 61.46 38.33 59.84 36.49 59.87C34.65 59.89 32.99 61.56 32.99 63.38C32.99 65.27 34.56 66.79 36.51 66.8V66.79Z" fill="#1DBEB4"/>
<path d="M93.97 41.1501C88.71 39.3601 86.41 35.7501 86.24 30.6401C86.09 25.9801 86.03 21.3201 85.93 16.6601C85.92 15.9901 85.93 15.3301 85.93 14.6601C85.77 7.67005 83.96 5.85005 76.95 5.63005C76.46 5.61005 75.96 5.56006 75.24 5.50006C75.19 4.66006 75.12 3.85005 75.1 3.05005C75.08 2.23005 75.1 1.41005 75.1 0.280055C79.62 0.110055 83.89 0.120055 87.8 2.35005C90.49 3.88005 91.73 6.43006 91.87 9.40006C92.11 14.6301 92.16 19.8801 92.29 25.1201C92.33 26.7801 92.29 28.4601 92.5 30.1101C93.24 35.6501 95.78 37.9701 101.38 38.3001C102.44 38.3601 103.5 38.3001 104.72 38.3001V43.7301C103.86 43.7301 102.98 43.7101 102.11 43.7301C95.85 43.9101 92.72 46.8 92.43 53.07C92.21 57.64 92.37 62.2301 92.28 66.8101C92.24 68.9701 92.11 71.1401 91.83 73.2801C91.29 77.4901 88.81 80.3601 84.61 81.1601C81.62 81.7301 78.53 81.7601 75.28 82.0501V76.7801C77.19 76.5801 79 76.4901 80.78 76.1901C83.22 75.7801 84.91 74.38 85.35 71.87C85.67 70.08 85.87 68.25 85.92 66.43C86.04 61.94 85.96 57.4401 86.11 52.9501C86.28 47.5101 87.79 42.8501 94 41.1501H93.97Z" fill="#1DBEB4"/>
<path d="M0 38.48C1.61 38.39 3.09 38.38 4.56 38.22C8.74 37.78 11.18 35.7 11.81 31.55C12.26 28.61 12.21 25.58 12.33 22.6C12.5 18.19 12.42 13.77 12.82 9.38C13.25 4.66 15.75 1.9 20.37 0.949997C23.27 0.349997 26.28 0.31 29.44 0V5.45C27.25 5.71 25.18 5.84 23.16 6.22C21.08 6.61 19.72 7.99 19.36 10.06C18.97 12.35 18.71 14.67 18.63 16.99C18.48 21.4 18.52 25.82 18.42 30.23C18.3 35.5 16.15 39.39 10.44 40.98C11.23 41.37 11.7 41.64 12.21 41.85C16.32 43.54 18.19 46.77 18.34 51.03C18.54 56.6 18.44 62.19 18.75 67.76C19.14 74.91 20.63 76.23 27.72 76.5C28.21 76.52 28.7 76.58 29.4 76.64V81.7C25.62 82.03 21.91 81.97 18.37 80.53C15.08 79.19 13.1 76.62 12.87 73.11C12.52 67.8 12.5 62.46 12.35 57.14C12.33 56.39 12.35 55.64 12.35 54.89C12.28 46.68 9.33 43.76 1.14 43.78C0.819999 43.78 0.489989 43.74 0.019989 43.71V38.5L0 38.48Z" fill="#1DBEB4"/>
<path d="M221.527 42.5357V66.1957H215.367V15.9657C219.737 15.9657 224.227 15.6057 228.587 16.1557C230.207 16.3557 232.357 18.4257 232.907 20.0957C235.117 26.7757 234.767 33.4757 232.107 39.3757C232.767 42.8457 233.537 45.8557 233.887 48.9157C234.537 54.5957 234.937 60.2957 235.457 66.1757H229.157C228.867 61.4557 228.597 56.7557 228.277 52.0557C228.157 50.2357 227.987 48.4057 227.727 46.5957C227.147 42.5457 226.077 41.8357 221.517 42.5357H221.527ZM221.667 37.0557C227.037 37.5057 227.827 36.9157 228.147 32.1657C228.287 30.1757 228.267 28.1657 228.227 26.1657C228.117 21.0257 226.837 20.0257 221.667 21.0557V37.0557Z" fill="#31363F"/>
<path d="M259.387 66.1657H253.277V51.8757H246.957V66.1057H240.797C240.737 65.7157 240.617 65.3257 240.617 64.9357C240.647 52.4557 240.617 39.9657 240.797 27.4857C240.837 24.8757 241.437 22.1957 242.237 19.6957C243.447 15.8757 246.707 15.1257 250.257 15.1457C253.757 15.1657 256.747 16.1157 257.977 19.7857C258.577 21.5857 259.137 23.4957 259.167 25.3657C259.407 38.6757 259.507 51.9857 259.637 65.3057C259.637 65.5357 259.507 65.7657 259.397 66.1557L259.387 66.1657ZM247.047 46.5757H252.737C252.737 38.6957 252.737 30.9757 252.737 23.2457C252.737 22.9157 252.727 22.4857 252.527 22.2857C251.777 21.5357 250.967 20.3357 250.137 20.3057C249.337 20.2757 248.077 21.3157 247.757 22.1657C247.217 23.6057 247.097 25.2557 247.077 26.8257C247.007 33.3757 247.047 39.9357 247.047 46.5657V46.5757Z" fill="#31363F"/>
<path d="M136.977 44.8457C135.337 44.7757 134.197 44.7257 132.857 44.6557V39.8757H142.757C142.627 46.9557 143.327 54.0357 141.597 60.9757C140.557 65.1257 137.747 67.0657 133.537 66.9757C128.527 66.8757 125.967 65.0957 124.887 60.7057C124.417 58.7757 124.057 56.7557 124.057 54.7857C124.047 44.4657 123.817 34.1257 124.357 23.8257C124.737 16.6357 128.297 13.9957 136.467 15.3357C139.427 15.8257 140.947 18.1657 141.587 20.8957C142.157 23.3057 142.357 25.7957 142.747 28.4657H136.917C136.687 26.6957 136.497 24.9057 136.217 23.1257C135.947 21.4157 135.177 20.1657 133.157 20.1557C131.197 20.1557 130.647 21.4957 130.277 23.0157C130.117 23.6557 129.967 24.3257 129.967 24.9857C130.027 35.6457 130.037 46.2957 130.277 56.9557C130.307 58.1357 131.427 59.8157 132.487 60.3457C134.297 61.2457 135.967 59.9757 136.207 57.5957C136.617 53.4657 136.737 49.3057 136.987 44.8457H136.977Z" fill="#31363F"/>
<path d="M264.077 15.7457H270.707C271.977 28.0257 273.237 40.2857 274.507 52.5357C274.727 52.5357 274.957 52.5357 275.177 52.5357C276.427 40.3557 277.687 28.1857 278.957 15.8357H285.607C283.287 32.6857 280.987 49.3957 278.657 66.3257C276.417 66.3257 274.337 66.4557 272.297 66.2457C271.737 66.1857 270.907 65.1857 270.817 64.5257C269.057 52.1557 267.387 39.7857 265.687 27.4057C265.167 23.6157 264.637 19.8257 264.077 15.7557V15.7457Z" fill="#31363F"/>
<path d="M296.557 20.6957V37.1257H303.187V42.1657H296.437C296.437 47.8657 296.397 53.3357 296.517 58.7957C296.517 59.1957 297.627 59.8657 298.257 59.9157C300.317 60.0557 302.387 59.9657 304.587 59.9657V66.1057H290.337V15.8457H304.547V20.6857H296.567L296.557 20.6957Z" fill="#31363F"/>
<path d="M158.227 15.7657H176.947V21.2957H170.777V66.1357H164.377V21.3557H158.227V15.7657Z" fill="#31363F"/>
<path d="M198.767 21.2957H192.387V15.8657H211.117V21.2557H205.087V66.1257H198.767V21.2957V21.2957Z" fill="#31363F"/>
<path d="M315.427 59.9257H323.577V66.1757H309.387V15.7757H315.427V59.9157V59.9257Z" fill="#31363F"/>
<path d="M154.057 66.1757H147.947V15.8157H154.057V66.1757V66.1757Z" fill="#31363F"/>
</svg>
